<mxfile host="app.diagrams.net" modified="2024-02-21T16:28:36.049Z" agent="Mozilla/5.0 (X11; Linux x86_64; rv:109.0) Gecko/20100101 Firefox/115.0" etag="m9PGvKj7Cgrjtu4rnNYa" version="23.1.5" type="github">
  <diagram id="2aMs-3XonSCy6BZj2Jzd" name="Page-1">
    <mxGraphModel dx="1194" dy="765" grid="1" gridSize="10" guides="1" tooltips="1" connect="1" arrows="1" fold="0" page="1" pageScale="1" pageWidth="826" pageHeight="1169" background="none" math="1" shadow="0">
      <root>
        <mxCell id="0" />
        <mxCell id="1" parent="0" />
        <mxCell id="eRK-iZ_CcSNKYkhJnxzL-17" value="" style="rounded=1;whiteSpace=wrap;html=1;" parent="1" vertex="1">
          <mxGeometry x="110" y="240" width="720" height="165" as="geometry" />
        </mxCell>
        <mxCell id="2" value="&lt;br&gt; \begin{pmatrix}&lt;br&gt;  t_{1,1} &amp;amp; t_{1,2} &amp;amp; \cdots &amp;amp; t_{1,n} \\&lt;br&gt;  t_{2,1} &amp;amp; t_{2,2} &amp;amp; \cdots &amp;amp; t_{2,n} \\&lt;br&gt;  \vdots  &amp;amp; \vdots  &amp;amp; \ddots &amp;amp; \vdots  \\&lt;br&gt;  t_{m,1} &amp;amp; t_{m,2} &amp;amp; \cdots &amp;amp; t_{m,n}&lt;br&gt; \end{pmatrix}$$" style="text;html=1;spacing=5;spacingTop=-10;whiteSpace=wrap;overflow=hidden;fillColor=none;strokeColor=none;shadow=0;rounded=0;verticalAlign=middle" parent="1" vertex="1">
          <mxGeometry x="130" y="250" width="180" height="120" as="geometry" />
        </mxCell>
        <mxCell id="eRK-iZ_CcSNKYkhJnxzL-18" value="&lt;b&gt;Traffic Demands&lt;br&gt;&lt;/b&gt;" style="text;html=1;strokeColor=none;fillColor=none;align=center;verticalAlign=middle;whiteSpace=wrap;rounded=0;" parent="1" vertex="1">
          <mxGeometry x="150" y="370" width="120" height="30" as="geometry" />
        </mxCell>
        <mxCell id="eRK-iZ_CcSNKYkhJnxzL-19" value="&lt;b&gt;Network Flows&lt;br&gt;&lt;/b&gt;" style="text;html=1;strokeColor=none;fillColor=none;align=center;verticalAlign=middle;whiteSpace=wrap;rounded=0;" parent="1" vertex="1">
          <mxGeometry x="420" y="370" width="120" height="30" as="geometry" />
        </mxCell>
        <mxCell id="eRK-iZ_CcSNKYkhJnxzL-20" value="&lt;b&gt;Routing Policy&lt;br&gt;&lt;/b&gt;" style="text;html=1;strokeColor=none;fillColor=none;align=center;verticalAlign=middle;whiteSpace=wrap;rounded=0;" parent="1" vertex="1">
          <mxGeometry x="660" y="370" width="120" height="30" as="geometry" />
        </mxCell>
        <mxCell id="eRK-iZ_CcSNKYkhJnxzL-22" value="&lt;br&gt; \begin{pmatrix}&lt;br&gt;  x_{1,1} &amp;amp; x_{1,2} &amp;amp; \cdots &amp;amp; x_{1,n} \\&lt;br&gt;  x_{2,1} &amp;amp; x_{2,2} &amp;amp; \cdots &amp;amp; x_{2,n} \\&lt;br&gt;  \vdots  &amp;amp; \vdots  &amp;amp; \ddots &amp;amp; \vdots  \\&lt;br&gt;  x_{m,1} &amp;amp; x_{m,2} &amp;amp; \cdots &amp;amp; x_{m,n}&lt;br&gt; \end{pmatrix}$$" style="text;html=1;spacing=5;spacingTop=-10;whiteSpace=wrap;overflow=hidden;fillColor=none;strokeColor=none;shadow=0;rounded=0;verticalAlign=middle" parent="1" vertex="1">
          <mxGeometry x="390" y="250" width="180" height="120" as="geometry" />
        </mxCell>
        <mxCell id="eRK-iZ_CcSNKYkhJnxzL-23" value="" style="endArrow=classic;html=1;rounded=0;exitX=1;exitY=0.5;exitDx=0;exitDy=0;" parent="1" source="2" target="eRK-iZ_CcSNKYkhJnxzL-22" edge="1">
          <mxGeometry width="50" height="50" relative="1" as="geometry">
            <mxPoint x="390" y="420" as="sourcePoint" />
            <mxPoint x="440" y="370" as="targetPoint" />
          </mxGeometry>
        </mxCell>
        <mxCell id="eRK-iZ_CcSNKYkhJnxzL-25" value="&lt;br&gt;&lt;div&gt;$$ \text{Maximize} \quad f(x)$$&lt;/div&gt;" style="text;html=1;spacing=5;spacingTop=-10;whiteSpace=wrap;overflow=hidden;fillColor=none;strokeColor=none;shadow=0;rounded=0;verticalAlign=middle" parent="1" vertex="1">
          <mxGeometry x="640" y="280" width="180" height="40" as="geometry" />
        </mxCell>
        <mxCell id="eRK-iZ_CcSNKYkhJnxzL-26" value="&lt;br&gt;&lt;div&gt;$$ \text{Subject to} \quad g_i(x) \geq 0$$&lt;/div&gt;" style="text;html=1;spacing=5;spacingTop=-10;whiteSpace=wrap;overflow=hidden;fillColor=none;strokeColor=none;shadow=0;rounded=0;verticalAlign=middle" parent="1" vertex="1">
          <mxGeometry x="640" y="310" width="180" height="40" as="geometry" />
        </mxCell>
        <mxCell id="eRK-iZ_CcSNKYkhJnxzL-27" value="" style="endArrow=classic;html=1;rounded=0;exitX=1;exitY=0.5;exitDx=0;exitDy=0;" parent="1" edge="1">
          <mxGeometry width="50" height="50" relative="1" as="geometry">
            <mxPoint x="550" y="310" as="sourcePoint" />
            <mxPoint x="630" y="310" as="targetPoint" />
          </mxGeometry>
        </mxCell>
      </root>
    </mxGraphModel>
  </diagram>
</mxfile>
